<svg width="40" height="40" viewBox="0 0 40 40" fill="none" xmlns="http://www.w3.org/2000/svg">
<path fill-rule="evenodd" clip-rule="evenodd" d="M10.4348 37.0651C8.69564 37.0651 5 35.9782 5 32.2825V9.02172C5 4.67391 7.82608 2.5 10.4348 2.5H29.3478C32.6086 2.5 34.7825 4.67391 34.7825 8.15216V15.9782C34.7825 16.6304 34.3477 17.5 33.4782 17.5C32.3912 17.2826 31.9564 16.8478 31.9564 15.9782V8.80433C31.9564 6.41303 29.7825 5.54347 28.913 5.54347H10.4348C9.34781 5.54347 7.60869 6.84781 7.60869 9.67389V31.413C7.60869 34.6738 9.78259 34.6738 10.6522 34.6738H17.1739C18.0434 34.4564 18.4782 35.326 18.4782 35.9782C18.4782 36.6303 18.0434 37.2825 16.9565 37.2825H10.4348V37.0651ZM27.1739 8.5869H12.3913C11.5217 8.5869 11.3043 9.23908 11.3043 9.67386C11.3043 10.1086 11.7391 10.7608 12.3913 10.7608H27.1739C27.826 10.7608 28.2608 10.326 28.2608 9.67386C28.2608 9.02169 27.826 8.5869 27.1739 8.5869ZM27.1739 14.6738H12.3913C11.5217 14.6738 11.3043 15.326 11.3043 15.7608C11.3043 16.413 11.7391 16.8477 12.3913 16.8477H27.1739C27.826 16.8477 28.2608 16.413 28.2608 15.7608C28.2608 15.1086 27.826 14.6738 27.1739 14.6738ZM18.6956 21.1956H12.3913C11.5217 21.1956 11.3043 21.6303 11.3043 22.2825C11.3043 22.9347 11.7391 23.3695 12.3913 23.3695H18.6956C19.1304 23.3695 19.7826 22.9347 19.7826 22.2825C19.7826 21.6303 19.3478 21.1956 18.6956 21.1956ZM34.6271 22.5157C33.0137 20.9022 30.9951 20.0637 28.5714 20C26.1478 20.0637 24.1292 20.9022 22.5157 22.5157C20.9022 24.1292 20.0637 26.1478 20 28.5714C20.0637 30.9951 20.9022 33.0137 22.5157 34.6271C24.1292 36.2406 26.1478 37.0792 28.5714 37.1429C30.9951 37.0792 33.0137 36.2406 34.6271 34.6271C36.2406 33.0137 37.0792 30.9951 37.1429 28.5714C37.0792 26.1478 36.2406 24.1292 34.6271 22.5157ZM25.6057 28.3608L27.5 30.2551L32.0159 25.7582C32.2073 25.5667 32.4402 25.5061 32.7145 25.5763C32.9888 25.6465 33.161 25.8188 33.2312 26.0931C33.3014 26.3673 33.2408 26.6002 33.0494 26.7916L28.0173 31.8237C27.8769 31.9641 27.7047 32.0343 27.5006 32.0343C27.2965 32.0343 27.1243 31.9641 26.9839 31.8237L24.5539 29.3937C24.4139 29.2406 24.3437 29.0684 24.3433 28.8769C24.3429 28.6855 24.4161 28.5165 24.5631 28.37C24.71 28.2235 24.8822 28.1502 25.0798 28.1502C25.2773 28.1502 25.4527 28.2204 25.6057 28.3608Z" fill="#60C888"/>
</svg>
